  <svg
        xmlns="http://www.w3.org/2000/svg"
        class="rotateX"
        width="13"
        height="8"
        viewBox="0 0 13 8"
        fill="none"
      >
        <path
          d="M4.86622 6.82052L5.22351 6.51596C5.8417 7.24119 6.80569 7.24134 7.42407 6.51646L12.0146 1.13522L4.86622 6.82052ZM4.86622 6.82052L5.22351 6.51596L0.584613 1.07386C0.584608 1.07386 0.584604 1.07385 0.584599 1.07385C0.471291 0.940888 0.47128 0.697263 0.584568 0.564283C0.631525 0.509206 0.673956 0.499999 0.697785 0.499999C0.721615 0.499999 0.764046 0.509206 0.811003 0.564283L5.45158 6.00837C5.4516 6.00839 5.45161 6.0084 5.45163 6.00842C5.92392 6.56258 6.72771 6.56249 7.2 6.00842L11.7883 0.625633C11.8352 0.570596 11.8776 0.561388 11.9014 0.561388C11.9253 0.561388 11.9677 0.570596 12.0146 0.625633L12.0146 0.625638M4.86622 6.82052L12.0146 0.625638M12.0146 0.625638C12.1279 0.758549 12.1279 1.00209 12.0147 1.13508L12.0146 0.625638Z"
          fill="#2e015e"
          stroke="#2e015e"
        />
      </svg>