<svg
          xmlns="http://www.w3.org/2000/svg"
          width="24"
          height="26"
          viewBox="0 0 24 26"
          fill="none"
        >
          <path
            d="M1 9H23M5.88889 1V3.66667M18.1111 1V3.66667M4.66667 13H7.11111M10.7778 13H13.2222M16.8889 13H19.3333M4.66667 17H7.11111M10.7778 17H13.2222M16.8889 17H19.3333M4.66667 21H7.11111M10.7778 21H13.2222M16.8889 21H19.3333M4.91111 25H19.0889C20.4579 25 21.1425 25 21.6653 24.7093C22.1253 24.4537 22.4993 24.0457 22.7336 23.544C23 22.9736 23 22.2268 23 20.7333V7.93333C23 6.43985 23 5.69312 22.7336 5.12269C22.4993 4.62092 22.1253 4.21297 21.6653 3.95732C21.1425 3.66667 20.4579 3.66667 19.0889 3.66667H4.91111C3.5421 3.66667 2.85758 3.66667 2.33469 3.95732C1.87473 4.21297 1.50078 4.62092 1.26643 5.12269C1 5.69312 1 6.43985 1 7.93333V20.7333C1 22.2268 1 22.9736 1.26643 23.544C1.50078 24.0457 1.87473 24.4537 2.33469 24.7093C2.85758 25 3.54209 25 4.91111 25Z"
            stroke="#FAFAFA"
            stroke-width="2"
            stroke-linecap="round"
          />
        </svg>