<svg xmlns="http://www.w3.org/2000/svg" width="20" height="20" viewBox="0 0 24 26" fill="none">
                        <path d="M1 9.02843H23M5.88889 1.08398V3.73213M18.1111 1.08398V3.73213M4.66667 13.0007H7.11111M10.7778 13.0007H13.2222M16.8889 13.0007H19.3333M4.66667 16.9729H7.11111M10.7778 16.9729H13.2222M16.8889 16.9729H19.3333M4.66667 20.9451H7.11111M10.7778 20.9451H13.2222M16.8889 20.9451H19.3333M4.91111 24.9173H19.0889C20.4579 24.9173 21.1425 24.9173 21.6653 24.6287C22.1253 24.3748 22.4993 23.9697 22.7336 23.4714C23 22.905 23 22.1634 23 20.6803V7.96917C23 6.48606 23 5.74451 22.7336 5.17805C22.4993 4.67976 22.1253 4.27465 21.6653 4.02077C21.1425 3.73213 20.4579 3.73213 19.0889 3.73213H4.91111C3.5421 3.73213 2.85758 3.73213 2.33469 4.02077C1.87473 4.27465 1.50078 4.67976 1.26643 5.17805C1 5.74451 1 6.48606 1 7.96917V20.6803C1 22.1634 1 22.905 1.26643 23.4714C1.50078 23.9697 1.87473 24.3748 2.33469 24.6287C2.85758 24.9173 3.54209 24.9173 4.91111 24.9173Z" stroke="#2e015e" stroke-width="1.5" stroke-linecap="round"/>
                    </svg>