<svg
            xmlns="http://www.w3.org/2000/svg"
            width="16"
            height="17"
            viewBox="0 0 16 17"
            fill="none"
          >
            <path
              fill-rule="evenodd"
              clip-rule="evenodd"
              d="M5.45738 0.890625C5.26008 0.890625 5.07086 0.969003 4.93135 1.10851L0.467884 5.57198C0.328379 5.71149 0.25 5.9007 0.25 6.098V15.0249C0.25 16.2575 1.24918 17.2567 2.48173 17.2567H3.22564C3.63649 17.2567 3.96956 16.9236 3.96956 16.5128C3.96956 16.1019 3.63649 15.7689 3.22564 15.7689H2.48173C2.07089 15.7689 1.73782 15.4358 1.73782 15.0249V6.84192H5.45738C5.86824 6.84192 6.20129 6.50885 6.20129 6.098V2.37845H11.4087C11.8195 2.37845 12.1526 2.71151 12.1526 3.12236V8.32974C12.1526 8.7406 12.4856 9.07365 12.8965 9.07365C13.3074 9.07365 13.6404 8.7406 13.6404 8.32974V3.12236C13.6404 1.88981 12.6413 0.890625 11.4087 0.890625H5.45738ZM4.71347 5.35409H2.78987L4.71347 3.43049V5.35409ZM5.68635 17.6753C5.80382 17.8202 5.97455 17.939 6.18983 17.9829C6.39143 18.0241 6.56752 17.9865 6.68952 17.942C6.91403 17.8601 7.09071 17.7056 7.20594 17.5919C7.38716 17.4133 7.57686 17.171 7.76566 16.8973C8.59088 16.6126 9.75056 16.3506 10.8783 16.1856C11.5052 16.0938 12.0905 16.0369 12.5832 16.0175C12.7784 16.2473 12.956 16.4454 13.1039 16.595C13.1964 16.6885 13.2993 16.7859 13.4 16.8602C13.4453 16.8938 13.5302 16.9532 13.6397 16.9958C13.6966 17.018 14.0705 17.1607 14.4159 16.8824C14.6191 16.7187 14.8072 16.5354 14.9381 16.3286C15.0696 16.1209 15.1936 15.8039 15.0904 15.4434C14.9892 15.0905 14.7256 14.8926 14.5316 14.7905C14.3337 14.6863 14.1112 14.6283 13.9072 14.5925C13.7222 14.5601 13.513 14.5398 13.2858 14.5298C12.8252 13.9548 12.2869 13.2397 11.7754 12.5104C11.3268 11.8708 10.9086 11.234 10.5837 10.6795C10.6171 10.5365 10.645 10.399 10.6666 10.2684C10.7037 10.0446 10.7261 9.82054 10.7211 9.61008C10.7165 9.40819 10.6859 9.16508 10.5755 8.93803C10.453 8.68644 10.2303 8.45739 9.89719 8.36768C9.59829 8.28719 9.31329 8.34752 9.09466 8.42838C8.75729 8.55321 8.57236 8.83009 8.50846 9.1005C8.45445 9.32933 8.48368 9.55027 8.51753 9.70813C8.58746 10.0344 8.7506 10.4094 8.93851 10.7767C8.95525 10.8093 8.97243 10.8424 8.98999 10.8758C8.81264 11.4595 8.55041 12.1481 8.23901 12.8601C7.78255 13.9038 7.24686 14.9383 6.78548 15.6781C6.47051 15.8101 6.17986 15.9611 5.95922 16.1346C5.80895 16.2528 5.60757 16.4451 5.51124 16.7261C5.39281 17.0717 5.47679 17.4169 5.68635 17.6753ZM10.6628 14.7134C10.0574 14.802 9.43321 14.9183 8.84203 15.0541C9.10559 14.5431 9.36507 13.9984 9.60215 13.4563C9.7368 13.1484 9.86646 12.8364 9.98668 12.5277C10.1708 12.8062 10.3629 13.0875 10.5573 13.3646C10.8568 13.7916 11.1657 14.2148 11.4651 14.6111C11.1993 14.6397 10.9301 14.6743 10.6628 14.7134ZM9.96615 9.35946C9.96607 9.35849 9.966 9.35805 9.96593 9.35805C9.96593 9.35797 9.966 9.35916 9.96622 9.36169C9.96622 9.3608 9.96615 9.36005 9.96615 9.35946Z"
              fill="#2e015e"
            />
          </svg>