<svg xmlns="http://www.w3.org/2000/svg" width="30" height="10" viewBox="0 0 30 10" fill="none">
        <path fill-rule="evenodd" clip-rule="evenodd" d="M8.28055 4.99672C8.28055 6.85245 6.77622 8.35672 4.92055 8.35672C3.06487 8.35672 1.56055 6.85245 1.56055 4.99672C1.56055 3.14099 3.06487 1.63672 4.92055 1.63672C5.81167 1.63672 6.6663 1.9907 7.29642 2.62086C7.92655 3.25103 8.28055 4.10565 8.28055 4.99672Z" stroke="white" stroke-width="1.5" stroke-linecap="round" stroke-linejoin="round"/>
        <path fill-rule="evenodd" clip-rule="evenodd" d="M18.3645 4.99672C18.3645 6.85245 16.8603 8.35672 15.0045 8.35672C13.1488 8.35672 11.6445 6.85245 11.6445 4.99672C11.6445 3.14099 13.1488 1.63672 15.0045 1.63672C16.8603 1.63672 18.3645 3.14099 18.3645 4.99672Z" stroke="white" stroke-width="1.5" stroke-linecap="round" stroke-linejoin="round"/>
        <path fill-rule="evenodd" clip-rule="evenodd" d="M28.4388 4.99672C28.4388 6.85245 26.9345 8.35672 25.0788 8.35672C23.223 8.35672 21.7188 6.85245 21.7188 4.99672C21.7188 3.14099 23.223 1.63672 25.0788 1.63672C26.9345 1.63672 28.4388 3.14099 28.4388 4.99672Z" stroke="white" stroke-width="1.5" stroke-linecap="round" stroke-linejoin="round"/>
        </svg>