<svg
        xmlns="http://www.w3.org/2000/svg"
        width="24"
        height="24"
        viewBox="0 0 24 24"
        fill="none"
      >
        <path
          fill-rule="evenodd"
          clip-rule="evenodd"
          d="M10.0982 18.3432C5.37918 18.3432 1.55375 14.5846 1.55375 9.94063C1.55375 5.29667 5.37918 1.53051 10.0982 1.53051C14.8171 1.53051 18.6434 5.29667 18.6434 9.94063C18.6434 14.5846 14.8171 18.3432 10.0982 18.3432ZM23.7735 22.6946L17.5773 16.5952C19.1993 14.8322 20.1964 12.5064 20.1964 9.94063C20.1964 4.4489 15.6754 0 10.0982 0C4.52091 0 0 4.4489 0 9.94063C0 15.4248 4.52091 19.8737 10.0982 19.8737C12.5079 19.8737 14.7181 19.041 16.4542 17.6531L22.6751 23.7749C22.979 24.075 23.4704 24.075 23.7735 23.7749C24.0773 23.4823 24.0773 22.9947 23.7735 22.6946Z"
          fill="#2e015e"
        />
      </svg>