<svg xmlns="http://www.w3.org/2000/svg" width="219" height="31" viewBox="0 0 219 31" fill="none">
<g clip-path="url(#clip0)">
<path d="M211.215 5.93829C206.401 5.93829 203.328 9.05842 202.816 13.2857C202.713 14.4935 202.713 16.6071 202.816 17.9156C203.123 22.0422 206.503 25.0617 211.317 25.0617C213.571 25.0617 215.415 24.5584 216.951 23.8539C217.873 23.4513 218.078 23.1493 218.078 22.8474C218.078 22.6461 217.976 22.2435 217.668 21.4383C217.156 20.3312 216.951 20.0292 216.439 20.0292C216.132 20.0292 215.824 20.2305 215.107 20.4318C214.083 20.8344 213.059 21.1363 211.317 21.1363C208.859 21.1363 207.015 19.7273 207.015 17.6136V17.1104H216.746C218.59 17.1104 219 16.8084 219 14.7954V13.6883C219 9.05842 216.132 5.93829 211.215 5.93829ZM207.015 13.7889C207.015 11.0714 208.449 9.76297 211.01 9.76297C213.776 9.76297 214.903 11.474 214.903 13.7889H207.015Z" fill="#16a0f6"/>
<path d="M195.236 13.7889L192.47 13.2857C190.934 12.9837 190.319 12.4805 190.319 11.5747C190.319 10.6688 191.241 9.96426 193.187 9.96426C194.416 9.96426 195.748 10.1656 197.182 10.8701C197.592 11.0714 197.899 11.1721 198.104 11.1721C198.513 11.1721 198.821 10.8701 199.333 9.66232C199.743 8.85712 199.743 8.55517 199.743 8.35388C199.743 7.95128 199.538 7.74998 198.616 7.24673C197.079 6.44154 194.724 6.03894 193.187 6.03894C189.09 6.03894 185.914 8.15258 185.914 11.776C185.914 14.8961 188.065 16.7078 191.138 17.211L194.006 17.7143C195.543 17.9156 196.055 18.6201 196.055 19.4253C196.055 20.3311 195.236 21.1363 192.88 21.1363C191.343 21.1363 189.602 20.5324 188.27 19.9285C187.861 19.7273 187.553 19.6266 187.348 19.6266C186.939 19.6266 186.631 19.9285 186.119 21.1363C185.709 21.9415 185.709 22.2435 185.709 22.4448C185.709 22.8474 185.914 23.0487 186.836 23.5519C188.373 24.3571 190.934 25.0617 193.187 25.0617C197.284 25.0617 200.46 22.948 200.46 19.1234C200.562 16.3052 198.923 14.4935 195.236 13.7889Z" fill="#16a0f6"/>
<path d="M63.508 6.03894C61.2545 6.03894 59.2058 6.74349 57.7718 7.54868C56.7475 6.74349 55.1086 6.03894 52.7526 6.03894C49.7821 6.03894 47.4261 6.84414 46.197 7.44803C44.9678 8.05193 45.0702 8.65582 45.0702 10.3669V22.6461C45.0702 24.7597 45.0702 24.7597 47.3237 24.7597C49.5772 24.7597 49.5772 24.7597 49.5772 22.6461V10.8701C50.1918 10.5682 51.421 10.2662 52.3429 10.2662C54.3915 10.2662 55.3134 11.2727 55.3134 13.3863V22.5454C55.3134 24.6591 55.3134 24.6591 57.5669 24.6591C59.8204 24.6591 59.8204 24.6591 59.8204 22.5454V10.8701C60.435 10.5682 61.6642 10.2662 62.5861 10.2662C64.6347 10.2662 65.5566 11.2727 65.5566 13.3863V22.5454C65.5566 24.6591 65.5566 24.6591 67.8101 24.6591C70.0637 24.6591 70.0637 24.6591 70.0637 22.5454V12.7824C70.2685 8.65582 68.1174 6.03894 63.508 6.03894Z" fill="#16a0f6"/>
<path d="M145.454 6.54218C144.532 6.24024 144.02 6.13959 143.712 6.13959C142.995 6.13959 142.79 6.74348 142.483 7.64933L138.796 17.513C138.693 17.9156 138.488 17.9156 138.386 17.9156C138.283 17.9156 138.079 17.9156 137.976 17.513L134.186 7.64933C133.776 6.64283 133.572 6.13959 132.957 6.13959C132.547 6.13959 132.035 6.24024 131.113 6.54218C130.089 6.94478 129.372 7.24673 129.372 7.85063C129.372 8.05193 129.474 8.45452 129.986 9.66232L135.62 23.4513L133.879 27.4772C133.469 28.5844 133.264 28.987 133.264 29.2889C133.264 29.8928 133.981 30.1948 135.006 30.5974C135.927 30.8993 136.44 31 136.849 31C137.566 31 137.669 30.3961 138.079 29.3896L146.478 9.56167C146.888 8.65582 147.093 8.05193 147.093 7.74998C147.195 7.24673 146.478 6.94478 145.454 6.54218Z" fill="#16a0f6"/>
<path d="M175.466 6.03894C173.827 6.03894 171.369 6.64284 170.242 7.04543C169.218 7.44803 168.911 7.64933 168.911 8.15258C168.911 8.45452 169.013 8.85712 169.32 9.66232C169.73 10.8701 170.037 11.1721 170.447 11.1721C170.652 11.1721 171.062 11.0714 171.574 10.8701C172.496 10.5682 174.032 10.1656 175.466 10.1656C177.925 10.1656 178.847 11.0714 178.847 12.8831V13.0844L175.671 13.487C173.008 13.7889 167.579 14.5941 167.579 19.224C167.579 22.3441 170.14 25.0617 175.057 25.0617C178.437 25.0617 181.203 23.9545 182.432 23.1493C183.046 22.7467 183.251 22.3441 183.251 21.5389V12.8831C183.251 8.15258 180.383 6.03894 175.466 6.03894ZM178.847 20.6331C177.515 21.0357 176.491 21.3376 175.364 21.3376C173.11 21.3376 171.881 20.6331 171.881 19.224C171.881 17.4123 174.135 17.1104 175.979 16.9091L178.949 16.5065V20.6331H178.847Z" fill="#16a0f6"/>
<path d="M157.848 6.03896C156.311 6.03896 154.673 6.44156 153.751 6.74351V2.11364C153.751 0 153.751 0 151.497 0C149.244 0 149.244 0 149.244 2.11364V21.4383C149.244 22.2435 149.449 22.6461 150.063 23.0487C151.19 23.7532 153.956 24.8604 157.438 24.8604C162.15 24.8604 165.121 22.0422 165.53 17.9156C165.633 16.6071 165.633 14.1916 165.53 12.8831C165.121 8.85714 162.048 6.03896 157.848 6.03896ZM161.023 17.3117C160.818 19.3247 159.589 20.7338 157.131 20.7338C155.902 20.7338 154.365 20.3312 153.648 19.9286V11.0714C154.57 10.6688 155.697 10.2662 157.131 10.2662C159.487 10.2662 160.716 11.6753 161.023 13.6883C161.126 14.8961 161.126 16.2045 161.023 17.3117Z" fill="#16a0f6"/>
<path d="M120.563 6.03894C115.748 6.03894 112.675 9.15907 112.163 13.3863C112.061 14.5941 112.061 16.7078 112.163 18.0162C112.471 22.1428 115.851 25.0617 120.665 25.0617C122.919 25.0617 124.762 24.5584 126.299 23.8539C127.221 23.4513 127.426 23.1493 127.426 22.8474C127.426 22.6461 127.323 22.2435 127.016 21.4383C126.504 20.3311 126.299 20.0292 125.787 20.0292C125.479 20.0292 125.172 20.2305 124.455 20.4318C123.431 20.8344 122.406 21.1363 120.665 21.1363C118.207 21.1363 116.363 19.7273 116.363 17.6136V17.211H126.094C127.938 17.211 128.348 16.9091 128.348 14.8961V13.7889C128.348 9.05842 125.479 6.03894 120.563 6.03894ZM116.363 13.8896C116.363 11.1721 117.797 9.86362 120.358 9.86362C123.123 9.86362 124.25 11.5747 124.25 13.8896H116.363Z" fill="#16a0f6"/>
<path d="M101.203 6.03894C98.0275 6.03894 95.5691 6.94478 94.1351 7.74998C93.0083 8.45452 93.0083 8.95777 93.0083 10.6688V22.6461C93.0083 24.7597 93.0083 24.7597 95.2618 24.7597C97.5153 24.7597 97.5153 24.7597 97.5153 22.6461V11.0714C98.3348 10.6688 99.564 10.2662 100.896 10.2662C103.456 10.2662 104.686 11.474 104.686 13.7889V22.6461C104.686 24.7597 104.686 24.7597 106.939 24.7597C109.193 24.7597 109.193 24.7597 109.193 22.6461V13.3863C109.193 8.75647 106.324 6.03894 101.203 6.03894Z" fill="#16a0f6"/>
<path d="M81.6385 6.03894C76.9266 6.03894 73.6488 8.95777 73.2391 13.0844C73.1366 14.3928 73.1366 16.6071 73.2391 18.0162C73.6488 22.1428 76.9266 25.0617 81.6385 25.0617C86.3504 25.0617 89.8331 22.1428 90.0379 18.0162C90.1404 16.7078 90.1404 14.4935 90.0379 13.0844C89.7306 8.95777 86.3504 6.03894 81.6385 6.03894ZM85.5309 17.211C85.326 19.3247 83.892 20.7337 81.6385 20.7337C79.385 20.7337 77.8485 19.3247 77.7461 17.211C77.6436 16.1039 77.6436 14.8961 77.7461 13.7889C77.9509 11.6753 79.385 10.2662 81.6385 10.2662C83.892 10.2662 85.326 11.6753 85.5309 13.7889C85.6333 14.8961 85.6333 16.1039 85.5309 17.211Z" fill="#16a0f6"/>
<path d="M23.9691 15.0974L30.0126 11.8766C31.8564 10.8701 31.8564 10.8701 30.7296 8.9578C29.6029 7.04546 29.6029 7.04546 27.7591 8.05196L17.5159 14.0909C17.4135 14.1916 17.2086 13.9903 17.311 13.8896L23.3545 3.92533C24.3788 2.01299 24.3788 2.01299 22.4326 0.905852C20.4864 -0.201291 20.384 -0.201291 19.4621 1.6104L16.1843 7.54871C15.9794 7.85066 15.877 7.95131 15.7745 7.95131C15.6721 7.95131 15.4672 7.95131 15.3648 7.54871L12.087 1.6104C11.0627 -0.201291 11.0627 -0.201291 9.11645 0.905852C7.06781 2.01299 7.06781 2.01299 8.19456 3.82468L14.2381 13.789C14.3405 13.8896 14.1356 14.0909 14.0332 13.9903L3.78998 7.95131C1.84377 6.94481 1.84377 6.94481 0.717015 8.9578C-0.409739 10.8701 -0.409739 10.9708 1.43404 11.8766L7.57997 15.0974C7.88727 15.2987 7.9897 15.3994 7.9897 15.5C7.9897 15.6007 7.9897 15.802 7.57997 15.9026L1.43404 19.1234C-0.409739 20.1299 -0.409739 20.1299 0.717015 22.0422C1.84377 23.9546 1.84377 23.9546 3.68755 22.9481L13.9308 16.9091C14.0332 16.8085 14.2381 17.0097 14.1356 17.1104L8.19456 27.1753C7.06781 28.987 7.06781 28.987 9.11645 30.0942C11.0627 31.2013 11.0627 31.2013 12.087 29.3896L15.3648 23.4513C15.5697 23.1494 15.6721 23.0487 15.7745 23.0487C15.877 23.0487 15.9794 23.0487 16.1843 23.4513L19.4621 29.3896C20.4864 31.2013 20.4864 31.2013 22.4326 30.0942C24.3788 28.987 24.3788 28.987 23.3545 27.1753L17.311 17.1104C17.2086 17.0097 17.4135 16.8085 17.5159 16.9091L27.7591 22.9481C29.6029 24.0552 29.6029 24.0552 30.7296 22.0422C31.8564 20.1299 31.8564 20.1299 30.0126 19.1234L23.9691 15.9026C23.6618 15.7013 23.5594 15.6007 23.5594 15.5C23.5594 15.2987 23.6618 15.1981 23.9691 15.0974Z" fill="#16a0f6"/>
</g>
<defs>
<clipPath id="clip0">
<rect width="219" height="31" fill="#16a0f6"/>
</clipPath>
</defs>
</svg>